<svg width="50" height="50" viewBox="0 0 50 50" fill="none" xmlns="http://www.w3.org/2000/svg">
<rect width="50" height="50" rx="10" fill="#6483FF"/>
<path d="M31.3438 21C31.1875 20.1146 30.8594 19.349 30.3594 18.7031C29.8594 18.0573 29.224 17.5677 28.4531 17.2344C27.6927 16.8906 26.8542 16.7188 25.9375 16.7188C24.6875 16.7188 23.5885 17.0312 22.6406 17.6562C21.6927 18.2708 20.9531 19.1771 20.4219 20.375C19.8906 21.5729 19.625 23.0104 19.625 24.6875C19.625 26.375 19.8906 27.8177 20.4219 29.0156C20.9531 30.2135 21.6927 31.1198 22.6406 31.7344C23.599 32.349 24.6979 32.6562 25.9375 32.6562C26.8333 32.6562 27.6562 32.4948 28.4062 32.1719C29.1667 31.8385 29.8021 31.3594 30.3125 30.7344C30.8229 30.1094 31.1667 29.3646 31.3438 28.5H35.4375C35.2292 29.9583 34.7031 31.2812 33.8594 32.4688C33.026 33.6562 31.9219 34.5938 30.5469 35.2812C29.1719 35.9688 27.6146 36.3125 25.875 36.3125C23.8854 36.3125 22.1042 35.849 20.5312 34.9219C18.9688 33.9844 17.7448 32.6406 16.8594 30.8906C15.974 29.1302 15.5312 27.0625 15.5312 24.6875C15.5312 22.3021 15.974 20.2344 16.8594 18.4844C17.7552 16.7344 18.9844 15.3958 20.5469 14.4688C22.1198 13.5312 23.8958 13.0625 25.875 13.0625C27.5417 13.0625 29.0573 13.3802 30.4219 14.0156C31.7865 14.6406 32.9062 15.5521 33.7812 16.75C34.6562 17.9375 35.2083 19.3542 35.4375 21H31.3438Z" fill="white"/>
</svg>
