<svg width="100" height="100" viewBox="0 0 100 100" fill="none" xmlns="http://www.w3.org/2000/svg">
<g clip-path="url(#clip0_2011_3154)">
<path d="M0 36.4583H14.5833V88.5416H0" stroke="#403D3C" stroke-width="4" stroke-linejoin="round"/>
<path d="M14.5833 76.7499L49.7917 92.1458L51.4792 92.8958C54.6875 94.2916 58.5208 94.0208 61.6042 91.8541C69.8125 86.0416 86.25 74.4374 94.4583 68.6249C97.2917 66.6249 98.6458 62.9166 97.5208 59.4166C96.1667 55.1041 91.6042 52.7291 87.3333 54.1041L56.3333 64.1041L48.7292 60.7708C51.8542 60.8958 54.9167 59.1458 56.3125 56.1041C58.1875 52.0416 56.4583 47.2291 52.4375 45.3333L33.0417 36.1666C29.9375 34.6874 26.2292 35.3958 23.8542 37.8958L14.5625 47.6458V76.7291L14.5833 76.7499Z" stroke="#403D3C" stroke-width="4" stroke-linejoin="round"/>
<path d="M85.7917 54.6457C85.7292 54.2082 85.6251 53.7707 85.5001 53.3332C84.1459 49.0207 79.5834 46.6457 75.3126 48.0207L56.9792 53.9374" stroke="#403D3C" stroke-width="4" stroke-linejoin="round"/>
<path d="M48.7292 60.7708L34.5417 54.0833" stroke="#403D3C" stroke-width="4" stroke-linejoin="round"/>
<path d="M86.4583 16.1458C86.4583 10.6875 81.7916 6.25 76.0416 6.25C72.6249 6.25 69.6041 7.83333 67.7083 10.25C65.8124 7.83333 62.7916 6.25 59.3749 6.25C53.6249 6.25 48.9583 10.6667 48.9583 16.1458C48.9583 16.875 49.0624 17.5833 49.2083 18.2917C51.4166 28.1042 67.7083 35.4375 67.7083 35.4375C67.7083 35.4375 83.9999 28.1042 86.2083 18.2917C86.3749 17.6042 86.4583 16.8958 86.4583 16.1458Z" fill="#E3E7F0" stroke="#403D3C" stroke-width="4" stroke-linejoin="round"/>
</g>
<defs>
<clipPath id="clip0_2011_3154">
<rect width="100" height="91.6667" fill="white" transform="translate(0 4.16663)"/>
</clipPath>
</defs>
</svg>
