<svg width="100" height="100" viewBox="0 0 100 100" fill="none" xmlns="http://www.w3.org/2000/svg">
<g clip-path="url(#clip0_2011_3211)">
<path d="M45.8337 34.8125C45.8337 17.4167 36.5003 2.08337 25.0003 2.08337C13.5003 2.08337 4.16699 17.4375 4.16699 34.8125C4.16699 43.875 9.64616 51.625 17.3753 54.7709C18.1878 55.1042 18.7503 55.8542 18.7503 56.7292V91.3334C18.7503 94.7084 21.292 97.75 24.667 97.9167C28.2712 98.1042 31.2503 95.2292 31.2503 91.6667V56.7084C31.2503 55.8334 31.8128 55.0834 32.6253 54.75C40.3545 51.625 45.8337 43.875 45.8337 34.7917V34.8125Z" fill="#E3E7F0" stroke="#403D3C" stroke-width="4" stroke-linejoin="round"/>
<path d="M54.167 0V30.6458C54.167 39.7083 59.6462 47.4583 67.3753 50.6042C68.1878 50.9375 68.7503 51.6875 68.7503 52.5625V91.3333C68.7503 94.7083 71.292 97.75 74.667 97.9167C78.2712 98.1042 81.2503 95.2292 81.2503 91.6667V52.5417C81.2503 51.6667 81.8128 50.9167 82.6253 50.5833C90.3545 47.4583 95.8337 39.7083 95.8337 30.625V0" stroke="#403D3C" stroke-width="4" stroke-linejoin="round"/>
<path d="M85.417 26.4792V0" stroke="#403D3C" stroke-width="4" stroke-linejoin="round"/>
<path d="M75.0005 26.4792V0" stroke="#403D3C" stroke-width="4" stroke-linejoin="round"/>
<path d="M64.5835 26.4792V0" stroke="#403D3C" stroke-width="4" stroke-linejoin="round"/>
</g>
<defs>
<clipPath id="clip0_2011_3211">
<rect width="95.8333" height="100" fill="white" transform="translate(2.0835)"/>
</clipPath>
</defs>
</svg>
