<svg width="100" height="106" viewBox="0 0 100 106" fill="none" xmlns="http://www.w3.org/2000/svg">
<path d="M84.091 37.0909C84.091 55.9091 50.0001 89.3636 50.0001 89.3636C50.0001 89.3636 15.9092 55.9091 15.9092 37.0909C15.9092 18.2727 31.1819 3 50.0001 3C68.8183 3 84.091 18.2727 84.091 37.0909Z" stroke="#403D3C" stroke-width="4" stroke-linejoin="round"/>
<path d="M49.9999 52.9999C58.7863 52.9999 65.909 45.8772 65.909 37.0909C65.909 28.3045 58.7863 21.1818 49.9999 21.1818C41.2136 21.1818 34.0908 28.3045 34.0908 37.0909C34.0908 45.8772 41.2136 52.9999 49.9999 52.9999Z" stroke="#403D3C" stroke-width="4" stroke-linejoin="round"/>
<path d="M62.5684 75.7273C55.773 83.7046 50.0002 89.3637 50.0002 89.3637C50.0002 89.3637 44.2275 83.7046 37.432 75.7273H15.9093L2.27295 103H97.7275L84.0911 75.7273H62.5684Z" fill="#E3E7F0" stroke="#403D3C" stroke-width="4" stroke-linejoin="round"/>
</svg>
