<svg width="100" height="100" viewBox="0 0 100 100" fill="none" xmlns="http://www.w3.org/2000/svg">
<g clip-path="url(#clip0_2011_3172)">
<path d="M64.5832 66.6667V25C64.5832 15.7917 57.1249 8.33337 47.9166 8.33337H18.7499C9.54158 8.33337 2.08325 15.7917 2.08325 25V66.6667H64.5832Z" fill="#E3E7F0" stroke="#403D3C" stroke-width="4" stroke-linejoin="round"/>
<path d="M18.7501 91.6667C23.3525 91.6667 27.0834 87.9357 27.0834 83.3333C27.0834 78.731 23.3525 75 18.7501 75C14.1477 75 10.4167 78.731 10.4167 83.3333C10.4167 87.9357 14.1477 91.6667 18.7501 91.6667Z" stroke="#403D3C" stroke-width="4" stroke-linejoin="round"/>
<path d="M81.2501 91.6667C85.8525 91.6667 89.5834 87.9357 89.5834 83.3333C89.5834 78.731 85.8525 75 81.2501 75C76.6477 75 72.9167 78.731 72.9167 83.3333C72.9167 87.9357 76.6477 91.6667 81.2501 91.6667Z" stroke="#403D3C" stroke-width="4" stroke-linejoin="round"/>
<path d="M10.4166 83.3333H2.08325V66.6666H97.9166V83.3333H89.5833" stroke="#403D3C" stroke-width="4" stroke-linejoin="round"/>
<path d="M72.9166 83.3334H27.0833" stroke="#403D3C" stroke-width="4" stroke-linejoin="round"/>
<path d="M64.5833 25H77.0833C88.5833 25 97.9166 34.3333 97.9166 45.8333V66.6667H64.5833V25Z" stroke="#403D3C" stroke-width="4" stroke-linejoin="round"/>
<path d="M97.9166 45.8334H64.5833V66.6667H97.9166V45.8334Z" stroke="#403D3C" stroke-width="4" stroke-linejoin="round"/>
</g>
<defs>
<clipPath id="clip0_2011_3172">
<rect width="100" height="87.5" fill="white" transform="translate(0 6.25)"/>
</clipPath>
</defs>
</svg>
