<svg width="50" height="50" viewBox="0 0 50 50" fill="none" xmlns="http://www.w3.org/2000/svg">
<rect width="50" height="50" rx="10" fill="#FF414A"/>
<path d="M17.0938 13.375H25.5938C27.2917 13.375 28.7344 13.6771 29.9219 14.2812C31.1198 14.875 32.026 15.7135 32.6406 16.7969C33.2552 17.8802 33.5625 19.1458 33.5625 20.5938C33.5625 22.1354 33.2135 23.4583 32.5156 24.5625C31.8281 25.6667 30.8177 26.4896 29.4844 27.0312L34.375 36H29.8438L25.4062 27.7188H21.1562V36H17.0938V13.375ZM24.9688 24.3125C27.9271 24.3125 29.4062 23.0729 29.4062 20.5938C29.4062 19.3646 29.0417 18.4219 28.3125 17.7656C27.5833 17.1094 26.4688 16.7812 24.9688 16.7812H21.1562V24.3125H24.9688Z" fill="white"/>
</svg>
