<svg width="50" height="50" viewBox="0 0 50 50" fill="none" xmlns="http://www.w3.org/2000/svg">
<path fill-rule="evenodd" clip-rule="evenodd" d="M26.5628 39.5V45.8333H23.4378V39.5C19.8612 39.1146 16.5533 37.4208 14.1498 34.7443C11.7463 32.0678 10.4168 28.5973 10.417 25V20.8333H13.542V25C13.542 28.0389 14.7492 30.9534 16.8981 33.1023C19.0469 35.2511 21.9614 36.4583 25.0003 36.4583C28.0393 36.4583 30.9537 35.2511 33.1026 33.1023C35.2514 30.9534 36.4587 28.0389 36.4587 25V20.8333H39.5837V25C39.5838 28.5973 38.2544 32.0678 35.8509 34.7443C33.4474 37.4208 30.1394 39.1146 26.5628 39.5ZM16.667 12.5C16.667 10.2899 17.545 8.17025 19.1078 6.60744C20.6706 5.04464 22.7902 4.16667 25.0003 4.16667C27.2105 4.16667 29.3301 5.04464 30.8929 6.60744C32.4557 8.17025 33.3337 10.2899 33.3337 12.5V25C33.3337 27.2101 32.4557 29.3298 30.8929 30.8926C29.3301 32.4554 27.2105 33.3333 25.0003 33.3333C22.7902 33.3333 20.6706 32.4554 19.1078 30.8926C17.545 29.3298 16.667 27.2101 16.667 25V12.5Z" fill="white"/>
</svg>
